<?xml version="1.0" encoding="UTF-8" standalone="no"?>
<svg
   xmlns:dc="http://purl.org/dc/elements/1.1/"
   xmlns:cc="http://creativecommons.org/ns#"
   xmlns:rdf="http://www.w3.org/1999/02/22-rdf-syntax-ns#"
   xmlns:svg="http://www.w3.org/2000/svg"
   xmlns="http://www.w3.org/2000/svg"
   xmlns:xlink="http://www.w3.org/1999/xlink"
   xmlns:sodipodi="http://sodipodi.sourceforge.net/DTD/sodipodi-0.dtd"
   xmlns:inkscape="http://www.inkscape.org/namespaces/inkscape"
   width="64"
   height="64"
   version="1.1"
   id="svg67"
   sodipodi:docname="Recovery1.svg"
   inkscape:version="1.0.2 (1.0.2+r75+1)">
  <metadata
     id="metadata71">
    <rdf:RDF>
      <cc:Work
         rdf:about="">
        <dc:format>image/svg+xml</dc:format>
        <dc:type
           rdf:resource="http://purl.org/dc/dcmitype/StillImage" />
      </cc:Work>
    </rdf:RDF>
  </metadata>
  <sodipodi:namedview
     pagecolor="#ffffff"
     bordercolor="#666666"
     borderopacity="1"
     objecttolerance="10"
     gridtolerance="10"
     guidetolerance="10"
     inkscape:pageopacity="0"
     inkscape:pageshadow="2"
     inkscape:window-width="1920"
     inkscape:window-height="1017"
     id="namedview69"
     showgrid="false"
     inkscape:zoom="13.40625"
     inkscape:cx="33.060019"
     inkscape:cy="33.098081"
     inkscape:window-x="0"
     inkscape:window-y="0"
     inkscape:window-maximized="1"
     inkscape:current-layer="svg67"
     inkscape:snap-text-baseline="true"
     inkscape:document-rotation="0" />
  <defs
     id="defs9">
    <path
       d="M5 10A5 5 0 1 1 5 0a5 5 0 0 1 0 10z"
       id="a" />
    <path
       d="M2.429 9.29A5.023 5.023 0 0 1 .507 7.196l8.979-4.408a5.02 5.02 0 0 0-1.399-1.722L2.43 9.289z"
       id="b" />
    <linearGradient
       x1="5"
       y1="6"
       x2="5"
       y2="4"
       id="c"
       gradientUnits="userSpaceOnUse"
       gradientTransform="translate(27 22)">
      <stop
         stop-color="#E2E096"
         offset="0%"
         id="stop4" />
      <stop
         stop-color="#F9F8D2"
         offset="100%"
         id="stop6" />
    </linearGradient>
  </defs>
  <path
     d="M54 53c0 2.991-2.121 5-5 5H15c-2.878 0-5-2.009-5-5V11c0-2.991 2.122-5 5-5h34c2.878 0 5 2.009 5 5z"
     fill="#cacbcf"
     id="path11"
     style="fill:#784421" />
  <g
     fill="none"
     id="g17">
    <path
       d="M51 11a2 2 0 1 1-4 0 2 2 0 0 1 4 0z"
       fill="#85858a"
       id="path13" />
    <path
       d="M50 11a1 1 0 1 0-2 0 1 1 0 0 0 2 0z"
       fill="#fff"
       id="path15" />
  </g>
  <g
     fill="none"
     id="g23">
    <path
       d="M17 11a2 2 0 1 1-4 0 2 2 0 0 1 4 0z"
       fill="#85858a"
       id="path19" />
    <path
       d="M16 11a1 1 0 1 0-2 0 1 1 0 0 0 2 0z"
       fill="#fff"
       id="path21" />
  </g>
  <path
     d="M14 39h-4v14c0 2.873 2.169 5 5 5h18v-9c-7.752-.5-14.611-4.25-19-10z"
     fill="#949496"
     id="path25"
     style="fill:#800080" />
  <path
     fill="#fff"
     fill-rule="evenodd"
     opacity=".1"
     d="M18.292 17.277L25 12l14.387 30.27 6.486-5.495z"
     id="path29" />
  <use
     transform="translate(27 22)"
     height="100%"
     width="100%"
     xlink:href="#a"
     fill="#1a1a1a"
     fill-rule="evenodd"
     id="use31" />
  <use
     height="100%"
     width="100%"
     xlink:href="#b"
     transform="translate(27.003 22.007)"
     opacity=".1"
     fill="#fff"
     fill-rule="evenodd"
     id="use33" />
  <path
     d="M32 30a3 3 0 1 1 0-6 3 3 0 0 1 0 6z"
     fill="#85858a"
     fill-rule="evenodd"
     id="path35" />
  <path
     d="M33 27a1 1 0 1 1-2 0 1 1 0 0 1 2 0"
     fill="url(#c)"
     fill-rule="evenodd"
     id="path37" />
  <g
     transform="matrix(-1 0 0 1 44.75 49.25)"
     fill="#949496"
     fill-rule="evenodd"
     id="g53">
    <rect
       rx=".5"
       height="7"
       width="1"
       id="rect43" />
    <rect
       rx=".5"
       height="7"
       width="1"
       x="2"
       id="rect45" />
    <rect
       rx=".5"
       height="7"
       width="1"
       x="4"
       id="rect47" />
    <rect
       rx=".5"
       height="7"
       width="1"
       x="6"
       id="rect49" />
    <rect
       rx=".5"
       height="7"
       width="1"
       x="8"
       id="rect51" />
  </g>
  <g
     fill="none"
     id="g65">
    <path
       d="M17 53a2 2 0 1 1-4 0 2 2 0 0 1 4 0z"
       fill="#6a6a6a"
       id="path61" />
    <path
       d="M16 53a1 1 0 1 0-2 0 1 1 0 0 0 2 0z"
       fill="#fff"
       id="path63" />
  </g>
  <path
     d="M 31.856734,8.4889278 A 17.842009,17.703279 0 0 0 14.149595,26.192209 17.842009,17.703279 0 0 0 31.991604,43.895488 17.842009,17.703279 0 0 0 49.833615,26.192209 17.842009,17.703279 0 0 0 31.991604,8.4889278 a 17.842009,17.703279 0 0 0 -0.134744,0 z m 0.123129,7.0814012 a 10.705116,10.621878 0 0 1 0.01169,0 10.705116,10.621878 0 0 1 10.705115,10.62188 A 10.705116,10.621878 0 0 1 31.991553,36.814088 10.705116,10.621878 0 0 1 21.286436,26.192209 10.705116,10.621878 0 0 1 31.979863,15.570329 Z"
     fill="#ff6e65"
     stroke-linecap="round"
     stroke-linejoin="round"
     stroke-width="1.10677"
     style="paint-order:stroke fill markers;fill:#ff0000"
     id="path10" />
  <path
     d="m 15.784674,18.851194 a 17.74895,17.610943 0 0 0 -1.636428,7.337892 c 0,2.618445 0.60242,5.10307 1.636428,7.342353 l 6.244501,-3.541816 a 10.69073,10.607605 0 0 1 -0.746283,-3.800537 c 0,-1.338218 0.287724,-2.618445 0.746283,-3.796078 m -6.248997,-3.541814 m 32.418356,0 -6.248995,3.541814 c 0.458559,1.177633 0.746282,2.453399 0.746282,3.796078 0,1.342678 -0.287723,2.618445 -0.741787,3.800537 l 6.2445,3.541816 c 1.029512,-2.239283 1.631934,-4.723908 1.631934,-7.342353 0,-2.618445 -0.602422,-5.10307 -1.631934,-7.337892 M 28.161284,36.078514 24.591714,42.27 c 2.256831,1.025968 4.760926,1.623704 7.39989,1.623704 2.638967,0 5.143061,-0.597736 7.395396,-1.623704 l -3.56957,-6.195947 c -1.186859,0.454993 -2.472625,0.74048 -3.825826,0.74048 -1.353199,0 -2.638964,-0.285487 -3.83032,-0.74048 m 3.83032,-27.5851252 c -2.638964,0 -5.143059,0.5977382 -7.39989,1.6192442 l 3.56957,6.200408 c 1.191356,-0.454994 2.472625,-0.74048 3.83032,-0.74048 1.348705,0 2.638967,0.285486 3.825826,0.736019 L 39.387,10.108172 A 17.74895,17.610943 0 0 0 31.991604,8.4889278"
     fill="#ffffff"
     id="path12"
     style="stroke-width:4.47816;fill:#ffffff" />
  <path
     d="M 22.746766,52.747377 33.129093,39.553526 c 0.148246,-0.176515 0.237532,-0.402972 0.237532,-0.650092 0,-0.553655 -0.448953,-1.003122 -1.003193,-1.003122 -0.246797,0 -0.47338,0.08783 -0.64858,0.237649 L 18.537738,48.534265 a 2.9228195,2.9878394 0 0 0 -1.223036,2.423851 c 0,1.66613 1.347698,3.013673 3.01042,3.013673 a 3.0238967,3.0911653 0 0 0 2.421644,-1.224412 z"
     fill="#ffffff"
     id="path41-8"
     style="fill:#008000;stroke-width:0.851629" />
</svg>
